<?xml version="1.0" encoding="utf-8"?>
<!-- Generator: Adobe Illustrator 17.1.0, SVG Export Plug-In . SVG Version: 6.00 Build 0)  -->
<!DOCTYPE svg PUBLIC "-//W3C//DTD SVG 1.1//EN" "http://www.w3.org/Graphics/SVG/1.1/DTD/svg11.dtd">
<svg version="1.1" id="Слой_1" xmlns="http://www.w3.org/2000/svg" xmlns:xlink="http://www.w3.org/1999/xlink" x="0px" y="0px"
	 viewBox="0 0 66.3 56.7" enable-background="new 0 0 66.3 56.7" xml:space="preserve">
<path fill="#ECECEC" d="M43.2,16.7l-17.7,0l-2.3-4.5v0h0H2.2v12.3h5.9v20h35.1V16.7z M11.1,23.5v-2H5.2v-6.3h15.4h0.5l2.4,4.5l0,0
	h0.1v0h16.6v21.8H11.1V23.5L11.1,23.5z"/>
<path fill="#ECECEC" d="M56.2,16.9L56.2,16.9l-2.4,4.5h-7.7v16.1v0h7.7l2.4,4.5l0,0l5.6,0V16.9L56.2,16.9z M58.3,39.1l-2.4-4.5l0,0
	v0h-2.5v0h-4.3V24.5h4.3h2.5v0l0,0l2.4-4.5h0.6v19.2H58.3z"/>
<circle fill="#ECECEC" cx="17.2" cy="25" r="2.4"/>
</svg>
