<svg xmlns="http://www.w3.org/2000/svg" viewBox="0 0 56.7 56.7" enable-background="new 0 0 56.7 56.7"><path fill="#EDEDED" d="M38.1 15.5L35.7 11H21l-2.4 4.5H5.8v31h45.1v-31H38.1zm9.8 28.1H8.8V18.5h11.9l2.4-4.5h10.6l2.4 4.5H48v25.1z"/><circle fill="#EDEDED" cx="14" cy="23.5" r="2.4"/><path fill="#EDEDED" d="M28.3 22.5c-4.6 0-8.3 3.7-8.3 8.3 0 4.6 3.7 8.3 8.3 8.3 4.6 0 8.3-3.7 8.3-8.3.1-4.5-3.7-8.3-8.3-8.3zm0 13.5c-2.8 0-5.1-2.3-5.1-5.1s2.3-5.1 5.1-5.1 5.1 2.3 5.1 5.1c.1 2.8-2.2 5.1-5.1 5.1z"/></svg>